<?xml version="1.0" encoding="utf-8"?>
<!-- Generator: Adobe Illustrator 23.1.0, SVG Export Plug-In . SVG Version: 6.00 Build 0)  -->
<svg version="1.1" id="Слой_1" xmlns="http://www.w3.org/2000/svg" xmlns:xlink="http://www.w3.org/1999/xlink" x="0px" y="0px"
	 viewBox="0 0 981 981" style="enable-background:new 0 0 981 981;" xml:space="preserve">
<style type="text/css">
	.st0{fill:#FFFFFF;stroke:#FFFFFF;stroke-miterlimit:10;}
</style>
<title>Ресурс 2</title>
<g>
	<g id="Слой_1-2">
		<path class="st0" d="M490.5,980.5 M490.5,33.4L490.5,33.4 M490.5,947.6"/>
		<path class="st0" d="M526.4,724.2H412.9c-106.9,0-190.7,0-190.7-54.3v-11.4c0-103.6,85.5-187.5,190.7-187.5h113.5
			c105.2,0,190.7,83.9,190.7,187.5V670C717.1,724.2,628.4,724.2,526.4,724.2z M465.6,457.9c-82.2,0-151.3-65.8-151.3-148
			s67.4-148,151.3-148c82.2,0,151.3,65.8,151.3,148C615.2,392.1,547.8,457.9,465.6,457.9L465.6,457.9z"/>
	</g>
</g>
</svg>
