<svg width="1920" height="2000" viewBox="0 0 1920 2000" fill="none" xmlns="http://www.w3.org/2000/svg">
<g clip-path="url(#clip0)">
<rect width="1920" height="2000" fill="#828282"/>
<rect width="66.4736" height="56.2171" rx="19" transform="matrix(0.959243 -0.282581 0.00685885 0.999976 30 373.784)" fill="white"/>
<path d="M37.2549 389.788L3189.86 -56.8487L2626.5 2242.95L37.2549 389.788Z" fill="white"/>
<rect width="107.276" height="50.1929" rx="25.0964" transform="matrix(0.986956 -0.16099 0.437707 0.899118 1144 662.23)" fill="#828282"/>
<rect x="1125" y="554.255" width="106.047" height="102.574" rx="33" transform="rotate(-8.83875 1125 554.255)" fill="#828282"/>
<path d="M1184 796.46V742.057V707.154C1168.75 678.228 1152.06 664.372 1152.06 684.46L1145 752.46" stroke="#828282" stroke-width="9"/>
<path d="M1271.94 774.46L1265.94 729.96L1259.94 691.154C1244.69 662.228 1228 644.45 1228 664.538V744.46" stroke="#828282" stroke-width="9"/>
<rect width="97.4786" height="95.1579" rx="34" transform="matrix(0.895545 -0.444971 0.940861 0.338791 578.483 776.837)" fill="#828282"/>
<path d="M670.483 901.462L657.003 812.572C657.003 796.072 616.816 788.072 607.483 784.072C598.15 780.072 593.983 797.072 593.983 797.072L572.983 874.962" stroke="#828282" stroke-width="9"/>
<path d="M744.983 868.462L731.503 779.572C731.503 763.072 691.316 755.072 681.983 751.072C672.65 747.072 668.483 764.072 668.483 764.072L647.483 841.962" stroke="#828282" stroke-width="9"/>
<path d="M575 700.96C592.2 738.56 594.167 766.793 601.5 770.96L635.5 781.697" stroke="#828282" stroke-width="9"/>
<path d="M626 669.96C643.2 707.56 645.167 735.793 652.5 739.96L686.5 750.697" stroke="#828282" stroke-width="9"/>
<path d="M656.897 683.375C667.21 714.533 619.53 737.644 619.53 737.644C619.53 737.644 571.986 761.164 561.673 730.006C551.36 698.849 564.317 663.152 590.612 650.276C616.908 637.399 646.585 652.218 656.897 683.375Z" fill="#828282"/>
<rect width="104.286" height="113.876" rx="43" transform="matrix(0.919721 -0.392574 0.250036 0.968237 675.538 577.226)" fill="#828282"/>
<rect width="97.4786" height="95.1579" rx="34" transform="matrix(0.895545 -0.444971 0.940861 0.338791 709.483 695.837)" fill="#828282"/>
<path d="M801.483 820.462L788.003 731.572C788.003 715.072 747.816 707.072 738.483 703.072C729.15 699.072 724.983 716.072 724.983 716.072L703.983 793.962" stroke="#828282" stroke-width="9"/>
<path d="M875.983 787.462L862.503 698.572C862.503 682.072 822.316 674.072 812.983 670.072C803.65 666.072 799.483 683.072 799.483 683.072L778.483 760.962" stroke="#828282" stroke-width="9"/>
<line y1="-4" x2="36.8663" y2="-4" transform="matrix(0.0816224 0.996663 -0.999109 0.0422138 936 577.96)" stroke="#828282" stroke-width="8"/>
<line y1="-4" x2="35.7893" y2="-4" transform="matrix(-0.0840785 -0.996459 0.999054 -0.0434906 1017 609.244)" stroke="#828282" stroke-width="8"/>
<path d="M949.627 738.96L954.12 649.098L938.957 625.422L936.149 687.303" stroke="#828282" stroke-width="8"/>
<path d="M1040.04 738.96L1035.55 645.869L1017.58 614.66L1019.26 685.15" stroke="#828282" stroke-width="8"/>
<path d="M1025.54 556.525C1028.69 584.252 974.053 582.405 974.053 582.405C974.053 582.405 920.486 589.991 917.337 562.264C916.016 550.639 912.508 541.189 918.845 533.667C927.622 523.248 949.145 516.805 966.497 515.884C982.399 515.041 1004.65 516.872 1015.49 524.708C1025.03 531.597 1024.07 543.554 1025.54 556.525Z" fill="#828282"/>
<path d="M1041.61 628.296C1049.21 652.063 993.081 652.38 993.081 652.38C993.081 652.38 939.538 660.783 931.934 637.016C924.329 613.249 944.551 597.768 974.836 595.36C1005.12 592.952 1034 604.529 1041.61 628.296Z" fill="#828282"/>
<ellipse cx="861" cy="844.46" rx="57" ry="35.5" fill="#828282"/>
<line x1="835.999" y1="870.051" x2="834.999" y2="914.091" stroke="#828282" stroke-width="8"/>
<line x1="829.998" y1="822.079" x2="827.998" y2="889.119" stroke="#828282" stroke-width="8"/>
<line x1="896" y1="870" x2="896" y2="914" stroke="#828282" stroke-width="8"/>
<line x1="883" y1="822" x2="883" y2="892" stroke="#828282" stroke-width="8"/>
<ellipse cx="1355" cy="701.46" rx="57" ry="35.5" fill="#828282"/>
<path d="M1309 697.96V761.96" stroke="#828282" stroke-width="8"/>
<line x1="1351" y1="726.028" x2="1350" y2="785.028" stroke="#828282" stroke-width="8"/>
<line x1="1402" y1="701.96" x2="1402" y2="765.96" stroke="#828282" stroke-width="8"/>
<line x1="1358" y1="674.906" x2="1358.93" y2="743.907" stroke="#828282" stroke-width="8"/>
<rect width="706.515" height="478.294" rx="84" transform="matrix(0.959243 -0.282581 0.00685885 0.999976 1239 822.832)" fill="#828282"/>
<rect x="1239" y="913.998" width="911" height="437" fill="#828282"/>
<rect x="1384" y="1317" width="911" height="437" fill="#828282"/>
<rect width="689.914" height="468.722" rx="84" transform="matrix(0.959243 -0.282581 0.00685885 0.999976 1246.98 828.301)" fill="white"/>
<rect width="45.9592" height="59.3081" rx="9" transform="matrix(0.929053 -0.369947 0.917148 0.398547 803 1729)" fill="white"/>
<rect width="37.1733" height="46.2787" rx="4" transform="matrix(-0.417109 0.930519 -0.973248 -0.108909 767.731 1754.43)" fill="white"/>
<rect width="52.3294" height="42.2423" rx="6" transform="matrix(0.914141 -0.4082 0.927009 0.371792 866.632 1753.73)" fill="white"/>
<rect width="52.6009" height="42.4963" rx="6" transform="matrix(0.908988 -0.419619 0.921936 0.384124 822.655 1790.44)" fill="white"/>
<rect width="56.3032" height="70.4513" rx="9" transform="matrix(0.929053 -0.369947 0.917148 0.398547 1114.04 1822.67)" fill="white"/>
<rect width="61.2199" height="48.9164" rx="9" transform="matrix(0.982433 -0.186615 0.839785 0.542919 1109.89 1754.42)" fill="white"/>
<rect width="58.5015" height="58.1689" rx="9" transform="matrix(0.851546 -0.524281 0.955871 0.293787 1226.93 1703.91)" fill="white"/>
<rect width="50.9905" height="60.5154" rx="9" transform="matrix(0.680379 -0.732861 0.997068 0.0765248 1373.19 1685.37)" fill="white"/>
<rect width="47.1948" height="62.0078" rx="9" transform="matrix(0.929053 -0.369947 0.917148 0.398547 976.462 1817.46)" fill="white"/>
<rect width="49.839" height="70.4979" rx="9" transform="matrix(0.871749 -0.499054 0.959714 0.263393 1029.51 1785.11)" fill="white"/>
<rect width="50.0879" height="55.7054" rx="5" transform="matrix(0.978888 -0.204396 0.859242 0.511569 836 1842.24)" fill="white"/>
<rect width="48.8509" height="44.9938" rx="5" transform="matrix(-0.78327 0.621682 -0.978856 -0.204552 1014.24 1857.49)" fill="white"/>
<rect width="46.9759" height="46.6408" rx="3" transform="matrix(0.973546 -0.22849 0.77792 0.628363 908 1788.73)" fill="white"/>
<rect width="64.2372" height="35.8136" rx="5" transform="matrix(0.97617 -0.217007 0.844617 0.535372 806 1807.94)" fill="white"/>
<rect width="32.891" height="78.2108" rx="5" transform="matrix(-0.565808 0.824537 -0.990276 -0.139115 1150.83 1880.88)" fill="white"/>
<rect width="54.1578" height="59.7875" rx="4" transform="matrix(0.88573 -0.464201 0.875781 0.482708 906 1938.14)" fill="white"/>
<rect width="47.2082" height="62.8338" rx="5" transform="matrix(0.794412 0.607379 -0.928535 0.371245 1322.34 1818)" fill="white"/>
<rect width="55.8368" height="41.7308" rx="3" transform="matrix(0.992322 0.123684 -0.609179 0.793033 1136.42 1569)" fill="white"/>
<rect width="37.1726" height="58.85" rx="4" transform="matrix(0.909203 0.416353 -0.93376 0.3579 620.952 1779)" fill="white"/>
<rect width="47.5495" height="57.5207" rx="5" transform="matrix(0.967702 -0.252097 0.86648 0.499212 684.812 1896.12)" fill="white"/>
<rect width="41.1501" height="72.5217" rx="3" transform="matrix(0.814805 -0.579735 0.971651 0.236422 348 1574.85)" fill="white"/>
<rect width="62.3212" height="32.7052" rx="6" transform="matrix(0.966915 -0.255098 0.778784 0.627292 814 1758.9)" fill="white"/>
<rect width="42.5427" height="56.8315" rx="4" transform="matrix(0.936915 0.349559 -0.91689 0.399139 779.108 1788.88)" fill="white"/>
<rect width="107.013" height="226.335" rx="29" transform="matrix(0.964268 -0.264928 0.805911 0.592037 697 1159.85)" fill="white"/>
<rect width="51.1129" height="63.9677" rx="9" transform="matrix(0.980787 -0.195081 -0.00364294 0.999993 747.824 1115.3)" fill="#828282"/>
<rect width="51.1129" height="63.9677" rx="9" transform="matrix(0.980787 -0.195081 -0.00364294 0.999993 751.43 1116.92)" fill="white"/>
<rect width="51.1129" height="63.9677" rx="9" transform="matrix(0.980787 -0.195081 -0.00364294 0.999993 752.331 1117.73)" fill="#828282"/>
<path d="M750.746 1116.66L760.662 1119.49L755.253 1179.38L749.845 1176.54L750.746 1116.66Z" fill="#828282"/>
<rect width="51.1129" height="63.9677" rx="9" transform="matrix(0.980787 -0.195081 -0.00364294 0.999993 744.824 1108.3)" fill="#828282"/>
<rect width="51.1129" height="63.9677" rx="9" transform="matrix(0.980787 -0.195081 -0.00364294 0.999993 748.43 1109.92)" fill="white"/>
<rect width="51.1129" height="63.9677" rx="9" transform="matrix(0.980787 -0.195081 -0.00364294 0.999993 749.331 1110.73)" fill="#828282"/>
<path d="M747.746 1109.66L757.662 1112.49L752.253 1172.38L746.845 1169.54L747.746 1109.66Z" fill="#828282"/>
<rect width="51.1129" height="63.9677" rx="9" transform="matrix(0.980787 -0.195081 -0.00364294 0.999993 731.824 1103.3)" fill="#828282"/>
<rect width="51.1129" height="63.9677" rx="9" transform="matrix(0.980787 -0.195081 -0.00364294 0.999993 735.43 1104.92)" fill="white"/>
<rect width="51.1129" height="63.9677" rx="9" transform="matrix(0.980787 -0.195081 -0.00364294 0.999993 736.331 1105.73)" fill="#828282"/>
<path d="M734.746 1104.66L744.662 1107.49L739.253 1167.38L733.845 1164.54L734.746 1104.66Z" fill="#828282"/>
<rect width="50.8373" height="62.1387" rx="5" transform="matrix(0.986105 -0.166126 -0.00430107 0.999991 753.859 1121.5)" fill="#828282"/>
<rect width="51.2237" height="60.228" rx="5" transform="matrix(0.986105 -0.166126 -0.00430107 0.999991 754.752 1122.79)" fill="white"/>
<rect width="50.8373" height="60.1168" rx="3" transform="matrix(0.986105 -0.166126 -0.00430107 0.999991 758.357 1125.58)" fill="#828282"/>
<rect width="50.8373" height="54.1796" rx="9" transform="matrix(0.986105 -0.166126 -0.00430107 0.999991 762.824 1135.46)" fill="#828282"/>
<rect width="51.2237" height="54.1796" rx="9" transform="matrix(0.986105 -0.166126 -0.00430107 0.999991 763.726 1134.84)" fill="white"/>
<rect width="50.8373" height="54.1796" rx="9" transform="matrix(0.986105 -0.166126 -0.00430107 0.999991 767.331 1137.52)" fill="#828282"/>
<rect width="40.3922" height="79.045" rx="9" transform="matrix(0.952338 -0.305045 -0.00226215 0.999997 772.77 1138.65)" fill="#828282"/>
<rect width="40.3922" height="79.045" rx="9" transform="matrix(0.952338 -0.305045 -0.00226215 0.999997 775.537 1140.65)" fill="white"/>
<rect width="40.3922" height="79.045" rx="9" transform="matrix(0.952338 -0.305045 -0.00226215 0.999997 778.995 1143.65)" fill="#828282"/>
<path d="M775.012 1140.33L782.621 1143.83L781.583 1220.33L774.321 1214.33L775.012 1140.33Z" fill="#828282"/>
<rect width="56.646" height="69.099" rx="9" transform="matrix(0.981756 -0.190146 -0.00374118 0.999993 808.85 1152.98)" fill="#828282"/>
<rect width="57.0765" height="69.099" rx="9" transform="matrix(0.981756 -0.190146 -0.00374118 0.999993 809.85 1152.18)" fill="white"/>
<rect width="56.646" height="69.099" rx="9" transform="matrix(0.981756 -0.190146 -0.00374118 0.999993 813.85 1155.6)" fill="#828282"/>
<rect width="32.4141" height="80.385" rx="9" transform="matrix(0.92226 -0.386571 -0.0017287 0.999999 842.73 1161.86)" fill="#828282"/>
<rect width="32.4141" height="80.385" rx="9" transform="matrix(0.92226 -0.386571 -0.0017287 0.999999 844.881 1163.89)" fill="white"/>
<rect width="32.4141" height="80.385" rx="9" transform="matrix(0.92226 -0.386571 -0.0017287 0.999999 847.568 1166.95)" fill="#828282"/>
<path d="M844.473 1163.57L850.386 1167.13L849.58 1244.92L843.935 1238.82L844.473 1163.57Z" fill="#828282"/>
<rect width="56.9611" height="79.0452" rx="9" transform="matrix(0.976324 -0.216313 -0.00327043 0.999995 849.85 1167.65)" fill="#828282"/>
<rect width="56.9611" height="79.0452" rx="9" transform="matrix(0.976324 -0.216313 -0.00327043 0.999995 853.85 1169.65)" fill="white"/>
<rect width="56.9611" height="79.0452" rx="9" transform="matrix(0.976324 -0.216313 -0.00327043 0.999995 858.85 1172.65)" fill="#828282"/>
<path d="M853.091 1169.33L864.091 1172.83L862.591 1249.33L852.091 1243.33L853.091 1169.33Z" fill="#828282"/>
<rect width="107.013" height="225.49" rx="29" transform="matrix(0.964268 -0.264928 0.805911 0.592037 697.681 1067.35)" fill="white"/>
<rect width="78.6906" height="49.6805" rx="7" transform="matrix(0.906855 -0.421443 0.890425 0.45513 782.671 1136.49)" fill="#828282"/>
<rect width="78.6906" height="49.6805" rx="8" transform="matrix(0.906855 -0.421443 0.890425 0.45513 782.591 1134.49)" fill="white"/>
<rect width="78.6906" height="49.6805" rx="7" transform="matrix(0.906855 -0.421443 0.890425 0.45513 782.591 1128.49)" fill="#828282"/>
<rect x="786.591" y="1128.33" width="2" height="9" fill="#828282"/>
<rect width="77.8259" height="60.3127" rx="8" transform="matrix(0.964268 -0.264928 0.805911 0.592037 769.591 1113.33)" fill="#828282"/>
<rect width="78.2384" height="54.0444" rx="7" transform="matrix(0.964268 -0.264928 0.805911 0.592037 771.591 1111.06)" fill="white"/>
<rect width="76.9355" height="58.7154" rx="6" transform="matrix(0.964268 -0.264928 0.805911 0.592037 770.591 1102.71)" fill="#828282"/>
<rect x="773.591" y="1103.33" width="2" height="11" fill="#828282"/>
<rect width="57.8995" height="45.5276" rx="8" transform="matrix(0.87805 -0.478569 0.904725 0.425996 786.591 1112.04)" fill="#828282"/>
<rect width="58.2064" height="42.9227" rx="7" transform="matrix(0.891955 -0.452124 0.891595 0.452835 788.029 1110.04)" fill="white"/>
<rect width="57.2371" height="44.3218" rx="6" transform="matrix(0.896015 -0.444024 0.887456 0.460893 786.591 1103.74)" fill="#828282"/>
<rect x="791.591" y="1106.33" width="3" height="9" fill="#828282"/>
<rect width="47.4306" height="29.8031" rx="7" transform="matrix(0.932256 -0.3618 0.919719 0.392578 799.64 1102.63)" fill="#828282"/>
<rect width="47.4306" height="29.8031" rx="8" transform="matrix(0.932256 -0.3618 0.919719 0.392578 799.591 1101.6)" fill="white"/>
<rect width="47.4306" height="29.8031" rx="7" transform="matrix(0.932256 -0.3618 0.919719 0.392578 799.591 1098.49)" fill="#828282"/>
<rect x="802.07" y="1098.41" width="1.23926" height="4.65702" fill="#828282"/>
<g filter="url(#filter0_d)">
<path d="M803.35 1097.32C801.827 1096.67 801.843 1095.65 803.388 1095.05L835.953 1082.42C837.498 1081.82 839.985 1081.86 841.509 1082.51L863.401 1091.85C864.925 1092.5 864.908 1093.52 863.364 1094.12L833.257 1105.8L830.799 1106.75C829.254 1107.35 826.766 1107.31 825.243 1106.66L823.643 1105.98L803.35 1097.32Z" fill="white"/>
</g>
<g filter="url(#filter1_d)">
<path d="M803.35 1096.32C801.827 1095.67 801.843 1094.65 803.388 1094.05L835.953 1081.42C837.498 1080.82 839.985 1080.86 841.509 1081.51L863.401 1090.85C864.925 1091.5 864.908 1092.52 863.364 1093.12L833.257 1104.8L830.799 1105.75C829.254 1106.35 826.766 1106.31 825.243 1105.66L823.643 1104.98L803.35 1096.32Z" fill="white"/>
</g>
<g filter="url(#filter2_d)">
<path d="M803.35 1095.32C801.827 1094.67 801.843 1093.65 803.388 1093.05L835.953 1080.42C837.498 1079.82 839.985 1079.86 841.509 1080.51L863.401 1089.85C864.925 1090.5 864.908 1091.52 863.364 1092.12L833.257 1103.8L830.799 1104.75C829.254 1105.35 826.766 1105.31 825.243 1104.66L823.643 1103.98L803.35 1095.32Z" fill="white"/>
</g>
<g filter="url(#filter3_d)">
<path d="M803.35 1094.32C801.827 1093.67 801.843 1092.65 803.388 1092.05L835.953 1079.42C837.498 1078.82 839.985 1078.86 841.509 1079.51L863.401 1088.85C864.925 1089.5 864.908 1090.52 863.364 1091.12L833.257 1102.8L830.799 1103.75C829.254 1104.35 826.766 1104.31 825.243 1103.66L823.643 1102.98L803.35 1094.32Z" fill="white"/>
</g>
<g filter="url(#filter4_d)">
<path d="M805.35 1093.32C803.827 1092.67 803.843 1091.65 805.388 1091.05L837.953 1078.42C839.498 1077.82 841.985 1077.86 843.509 1078.51L865.401 1087.85C866.925 1088.5 866.908 1089.52 865.364 1090.12L835.257 1101.8L832.799 1102.75C831.254 1103.35 828.766 1103.31 827.243 1102.66L825.643 1101.98L805.35 1093.32Z" fill="white"/>
</g>
<g filter="url(#filter5_d)">
<path d="M799.35 1092.32C797.827 1091.67 797.843 1090.65 799.388 1090.05L831.953 1077.42C833.498 1076.82 835.985 1076.86 837.509 1077.51L859.401 1086.85C860.925 1087.5 860.908 1088.52 859.364 1089.12L829.257 1100.8L826.799 1101.75C825.254 1102.35 822.766 1102.31 821.243 1101.66L819.643 1100.98L799.35 1092.32Z" fill="white"/>
</g>
<g filter="url(#filter6_d)">
<path d="M810.35 1093.32C808.827 1092.67 808.843 1091.65 810.388 1091.05L842.953 1078.42C844.498 1077.82 846.985 1077.86 848.509 1078.51L870.401 1087.85C871.925 1088.5 871.908 1089.52 870.364 1090.12L840.257 1101.8L837.799 1102.75C836.254 1103.35 833.766 1103.31 832.243 1102.66L830.643 1101.98L810.35 1093.32Z" fill="white"/>
</g>
<g filter="url(#filter7_d)">
<path d="M799.35 1091.32C797.827 1090.67 797.843 1089.65 799.388 1089.05L831.953 1076.42C833.498 1075.82 835.985 1075.86 837.509 1076.51L859.401 1085.85C860.925 1086.5 860.908 1087.52 859.364 1088.12L829.257 1099.8L826.799 1100.75C825.254 1101.35 822.766 1101.31 821.243 1100.66L819.643 1099.98L799.35 1091.32Z" fill="white"/>
</g>
<g filter="url(#filter8_d)">
<path d="M808.35 1091.32C806.827 1090.67 806.843 1089.65 808.388 1089.05L840.953 1076.42C842.498 1075.82 844.985 1075.86 846.509 1076.51L868.401 1085.85C869.925 1086.5 869.908 1087.52 868.364 1088.12L838.257 1099.8L835.799 1100.75C834.254 1101.35 831.766 1101.31 830.243 1100.66L828.643 1099.98L808.35 1091.32Z" fill="white"/>
</g>
<g filter="url(#filter9_d)">
<path d="M805.35 1087.32C803.827 1086.67 803.843 1085.65 805.388 1085.05L837.953 1072.42C839.498 1071.82 841.985 1071.86 843.509 1072.51L865.401 1081.85C866.925 1082.5 866.908 1083.52 865.364 1084.12L835.257 1095.8L832.799 1096.75C831.254 1097.35 828.766 1097.31 827.243 1096.66L825.643 1095.98L805.35 1087.32Z" fill="white"/>
</g>
<g filter="url(#filter10_d)">
<path d="M802.35 1087.32C800.827 1086.67 800.843 1085.65 802.388 1085.05L834.953 1072.42C836.498 1071.82 838.985 1071.86 840.509 1072.51L862.401 1081.85C863.925 1082.5 863.908 1083.52 862.364 1084.12L832.257 1095.8L829.799 1096.75C828.254 1097.35 825.766 1097.31 824.243 1096.66L822.643 1095.98L802.35 1087.32Z" fill="white"/>
</g>
<rect width="56.2261" height="35.3512" rx="7" transform="matrix(0.929054 -0.369943 0.916004 0.40117 791.649 1084.15)" fill="#828282"/>
<rect width="56.2261" height="35.3512" rx="8" transform="matrix(0.929054 -0.369943 0.916004 0.40117 791.591 1082.89)" fill="white"/>
<rect width="56.2261" height="35.3512" rx="7" transform="matrix(0.929054 -0.369943 0.916004 0.40117 791.591 1079.13)" fill="#828282"/>
<rect x="794.519" y="1079.03" width="1.46402" height="5.64488" fill="#828282"/>
<rect width="91.4383" height="55.8593" rx="11" transform="matrix(0.977048 -0.213021 0.773122 0.634257 832.923 1156)" fill="#828282"/>
<rect width="92.529" height="54.0444" rx="9" transform="matrix(0.974629 -0.223828 0.780099 0.625656 835.809 1154.52)" fill="white"/>
<rect width="90.8998" height="57.2061" rx="12" transform="matrix(0.979212 -0.202842 0.76648 0.642268 832.591 1146.33)" fill="#828282"/>
<rect x="838.591" y="1148.33" width="2" height="10" fill="#828282"/>
<rect width="77.8259" height="60.3127" rx="17" transform="matrix(0.964268 -0.264928 0.805911 0.592037 832.591 1142.33)" fill="#828282"/>
<rect width="78.2384" height="54.0444" rx="18" transform="matrix(0.964268 -0.264928 0.805911 0.592037 835.591 1141.33)" fill="white"/>
<rect width="76.9355" height="58.7154" rx="17" transform="matrix(0.964268 -0.264928 0.805911 0.592037 832.591 1131.71)" fill="#828282"/>
<rect x="841.591" y="1135.33" width="3" height="11" fill="#828282"/>
<rect width="73.8708" height="45.4577" rx="12" transform="matrix(0.957511 -0.288396 0.778837 0.627227 845.591 1123.63)" fill="#828282"/>
<rect width="73.6546" height="43.3232" rx="9" transform="matrix(0.955911 -0.293657 0.772736 0.634727 846.591 1122.96)" fill="white"/>
<rect width="73.8708" height="45.4577" rx="12" transform="matrix(0.957511 -0.288396 0.778837 0.627227 845.591 1118.81)" fill="#828282"/>
<rect x="851.591" y="1120.33" width="2" height="11" fill="#828282"/>
<rect width="146.096" height="181.699" rx="20" transform="matrix(0.817872 0.5754 0.000236019 1 512 1446)" fill="white"/>
<rect x="11.5572" y="2.21569" width="511.411" height="172.283" rx="32.5" transform="matrix(0.969033 -0.246929 0.809003 0.587804 435.58 1446.26)" fill="white" stroke="#828282" stroke-width="13"/>
<rect width="48.1466" height="61.7194" rx="13" transform="matrix(0.969586 -0.244751 0.845535 0.53392 584 1428.78)" fill="#828282"/>
<rect width="48.1466" height="61.7194" rx="12" transform="matrix(0.969586 -0.244751 0.845535 0.53392 584 1425.78)" fill="white"/>
<rect width="48.1466" height="61.7194" rx="13" transform="matrix(0.969586 -0.244751 0.845535 0.53392 584 1419.78)" fill="#828282"/>
<rect x="674" y="1439" width="2" height="11" fill="#828282"/>
<rect width="136.545" height="90.6013" rx="9" transform="matrix(0.968705 -0.248216 0.271751 0.962367 670 1320.89)" fill="white"/>
<rect width="125.099" height="79.5548" rx="9" transform="matrix(0.968705 -0.248216 0.271751 0.962367 677.405 1325.1)" fill="#828282"/>
<rect width="134.079" height="88.7818" rx="10" transform="matrix(0.969033 -0.246929 0.809003 0.587804 694.86 1409.9)" fill="white"/>
<rect width="134.079" height="88.7818" rx="16" transform="matrix(0.969033 -0.246929 0.809003 0.587804 694 1413.11)" fill="white"/>
<rect width="120.868" height="44.2787" rx="16" transform="matrix(0.969033 -0.246929 0.809003 0.587804 705 1409.85)" fill="#828282"/>
<rect width="120.288" height="47.1797" rx="7" transform="matrix(0.969532 -0.244966 -0.00533385 0.999986 649.252 1552.47)" fill="white"/>
<rect width="77.5932" height="26.8227" rx="4" transform="matrix(0.817872 0.5754 0.000236019 1 648 1620)" fill="white"/>
<path d="M833 1621V1647L820 1645L805 1644L796 1647V1652.5L800.5 1659L805 1663.5L811 1666L824.5 1667L837 1669.5H850L858 1668.5L862 1665V1650.5L858 1642L855.5 1629L833 1621Z" fill="#676666"/>
<rect width="120.288" height="47.1797" rx="7" transform="matrix(0.969532 -0.244966 -0.00533385 0.999986 711.252 1647.47)" fill="white"/>
<path d="M921.5 1573.5L879.5 1541L849 1523H834L822.5 1526L816 1535.5V1550L822.5 1581L830.5 1619.5L842.5 1647L854.5 1645.5L862.5 1632.5L860 1616V1597.5L858 1589L854.5 1581L873 1595L893 1602H916.5L936.5 1587L933 1571L921.5 1573.5Z" fill="#676666"/>
<path d="M782.874 1437.89L776.857 1432.08L769.107 1420.77L768 1415.92L772.429 1415.38L773.536 1411.62L777.964 1409.46L781.839 1405.15L786.821 1407.31L790.696 1415.38L794.018 1419.69L792.357 1415.38L790.143 1411.62L786.821 1405.15L790.696 1403L795.125 1409.46L798.446 1414.31L799 1420.23V1426.15L792.357 1436.92L782.874 1437.89Z" fill="#828282"/>
<path d="M934 1394L921 1385L913.5 1375L910 1379L903.5 1383.5H892.5V1392.5L895 1402L896.5 1406L922 1400.5L934 1397V1394Z" fill="#828282"/>
<path d="M863 1339V1350.5L858 1358V1360.5L861 1362.5V1366V1369.5L863 1370.5V1373L864 1377L868.5 1381L877 1385L880.5 1389.5L886.5 1403L888 1406L896.5 1403L898 1387L893 1341L873 1324L863 1339Z" fill="#828282"/>
<path d="M914.611 1379.19L921.806 1368.7L926.944 1357.17V1343.54L929 1338.3L923.347 1334.63L929 1328.34L926.944 1324.68L917.181 1318.91L909.472 1314.19L895.597 1310H880.694L870.417 1314.19L861.681 1322.58L855 1334.63L858.597 1338.3H865.278L870.417 1334.63L877.097 1343.54L875.042 1350.36L880.694 1363.99L888.403 1379.19L895.597 1386H904.847L914.611 1379.19Z" fill="#676666"/>
<path d="M840.046 1436.99L870.939 1411.11L900.962 1401.02L936.641 1394L967.534 1401.02L987.985 1425.15L1002.78 1453.66L1008 1483.93L1002.78 1498.41L987.985 1506.31V1519.03V1545.35V1568.61L973.626 1584.84L949.695 1598H924.023H900.962H878.336L865.718 1578.7V1545.35V1506.31V1483.93L857.015 1490.95L832.214 1498.41L805.672 1490.95L786.962 1459.81L780 1436.99L798.5 1428.5L812.634 1436.99H840.046Z" fill="#676666"/>
<path d="M896.971 1451.03L897.472 1454.3L898.872 1454.65L899.022 1455.63L894.858 1456.27L894.709 1455.29L895.941 1454.53L894.561 1445.5L893.165 1445.18L893.01 1444.17L900.092 1443.09C901.243 1442.91 902.162 1443.08 902.849 1443.61C903.537 1444.14 903.972 1445 904.155 1446.2C904.338 1447.4 904.162 1448.35 903.627 1449.06C903.105 1449.77 902.244 1450.22 901.046 1450.4L896.971 1451.03ZM902.553 1446.44C902.426 1445.61 902.169 1445.04 901.781 1444.72C901.402 1444.39 900.857 1444.28 900.146 1444.39L896.053 1445.01L896.776 1449.75L900.69 1449.15C901.485 1449.03 902.027 1448.76 902.314 1448.34C902.602 1447.92 902.682 1447.28 902.553 1446.44ZM913.071 1442.14L911.833 1442.86L913.216 1451.91L914.614 1452.25L914.764 1453.23L910.6 1453.86L910.451 1452.88L911.686 1452.15L910.303 1443.09L908.907 1442.78L908.752 1441.76L912.916 1441.13L913.071 1442.14ZM931.532 1449.66L931.681 1450.64L929.635 1450.96L925.523 1446.45L922.445 1446.92L922.978 1450.41L924.379 1450.76L924.528 1451.74L920.364 1452.37L920.215 1451.39L921.447 1450.64L920.067 1441.6L918.671 1441.29L918.516 1440.27L925.616 1439.19C926.767 1439.01 927.685 1439.18 928.37 1439.7C929.054 1440.2 929.485 1441.03 929.662 1442.19C929.82 1443.22 929.695 1444.08 929.287 1444.74C928.89 1445.4 928.225 1445.86 927.295 1446.12L930.24 1449.32L931.532 1449.66ZM922.249 1445.64L926.182 1445.04C926.977 1444.92 927.52 1444.66 927.811 1444.26C928.101 1443.85 928.184 1443.24 928.061 1442.44C927.939 1441.64 927.686 1441.09 927.299 1440.79C926.924 1440.48 926.381 1440.38 925.669 1440.49L921.559 1441.12L922.249 1445.64ZM940.575 1436.68C942.379 1436.41 943.864 1436.72 945.032 1437.61C946.198 1438.48 946.941 1439.97 947.262 1442.07C947.582 1444.17 947.318 1445.82 946.469 1447.02C945.619 1448.2 944.292 1448.94 942.489 1449.21C940.685 1449.49 939.201 1449.18 938.035 1448.31C936.867 1447.42 936.123 1445.92 935.802 1443.82C935.482 1441.72 935.747 1440.08 936.597 1438.89C937.446 1437.7 938.772 1436.96 940.575 1436.68ZM940.777 1438C939.816 1438.15 939.057 1438.43 938.501 1438.84C937.957 1439.25 937.592 1439.84 937.406 1440.61C937.22 1441.38 937.219 1442.37 937.404 1443.58C937.589 1444.79 937.885 1445.73 938.292 1446.41C938.699 1447.09 939.223 1447.54 939.865 1447.77C940.519 1448 941.327 1448.04 942.287 1447.89C943.248 1447.75 944.001 1447.47 944.545 1447.06C945.101 1446.64 945.472 1446.05 945.658 1445.29C945.844 1444.52 945.845 1443.53 945.66 1442.32C945.475 1441.11 945.179 1440.16 944.772 1439.48C944.365 1438.81 943.835 1438.35 943.181 1438.13C942.539 1437.9 941.737 1437.85 940.777 1438ZM962.503 1436.89L961.471 1437.04L960.689 1435.14L954.746 1436.05L955.395 1440.3L958.812 1439.78L958.867 1438.35L959.845 1438.2L960.473 1442.31L959.494 1442.46L959.007 1441.06L955.591 1441.58L956.167 1445.36L957.868 1445.64L958.017 1446.62L953.551 1447.3L953.402 1446.32L954.637 1445.59L953.254 1436.53L951.858 1436.22L951.703 1435.2L962.006 1433.63L962.503 1436.89ZM978.227 1434.48L977.195 1434.64L976.413 1432.74L970.47 1433.65L971.12 1437.9L974.536 1437.38L974.591 1435.95L975.57 1435.8L976.197 1439.91L975.219 1440.06L974.732 1438.66L971.315 1439.18L971.891 1442.95L973.592 1443.24L973.742 1444.22L969.275 1444.9L969.126 1443.92L970.361 1443.19L968.978 1434.13L967.582 1433.82L967.428 1432.8L977.73 1431.23L978.227 1434.48Z" fill="white"/>
<rect width="112.026" height="30.7859" rx="15.3929" transform="matrix(0.970074 -0.24281 0.920694 0.390286 937.957 1483.9)" fill="white"/>
<rect x="933.563" y="1633.36" width="93.0105" height="17.6706" rx="8.83528" transform="rotate(91.1682 933.563 1633.36)" fill="white"/>
<rect width="24.9697" height="137.303" rx="9" transform="matrix(0.914331 0.404968 -0.246216 0.969215 943.806 1478.87)" fill="white"/>
<rect x="837" y="1669" width="175" height="15" rx="7.5" fill="white"/>
<path d="M841.947 1581.98C843.171 1577.17 847.847 1574.89 852.392 1576.9L925.838 1609.43C930.383 1611.45 933.075 1616.98 931.851 1621.8L926.651 1642.27C925.427 1647.09 920.751 1649.36 916.206 1647.35L842.76 1614.82C838.216 1612.81 835.523 1607.27 836.747 1602.45L841.947 1581.98Z" fill="white"/>
<path d="M854.954 1533.35C856.178 1528.53 860.854 1526.26 865.399 1528.27L929.797 1556.8C934.342 1558.81 937.034 1564.35 935.81 1569.16L935.117 1571.89C933.893 1576.71 929.217 1578.98 924.672 1576.97L860.274 1548.45C855.729 1546.44 853.037 1540.9 854.26 1536.08L854.954 1533.35Z" fill="white"/>
<rect width="111.931" height="172.881" rx="15" transform="matrix(-0.970949 0.239288 0.24924 -0.968442 1027.68 1627.42)" fill="white"/>
<rect width="15.7551" height="48.6421" rx="7.87756" transform="matrix(-0.970949 0.239288 0.24924 -0.968442 934.297 1680.1)" fill="white"/>
<rect width="17.4499" height="56.5117" rx="8.72496" transform="matrix(0.914331 0.404968 -0.246216 0.969215 915.914 1622.17)" fill="white"/>
</g>
<defs>
<filter id="filter0_d" x="798.219" y="1079.99" width="70.3146" height="33.186" filterUnits="userSpaceOnUse" color-interpolation-filters="sRGB">
<feFlood flood-opacity="0" result="BackgroundImageFix"/>
<feColorMatrix in="SourceAlpha" type="matrix" values="0 0 0 0 0 0 0 0 0 0 0 0 0 0 0 0 0 0 127 0"/>
<feOffset dy="2"/>
<feGaussianBlur stdDeviation="2"/>
<feColorMatrix type="matrix" values="0 0 0 0 0.87451 0 0 0 0 0.901961 0 0 0 0 0.878431 0 0 0 0.5 0"/>
<feBlend mode="normal" in2="BackgroundImageFix" result="effect1_dropShadow"/>
<feBlend mode="normal" in="SourceGraphic" in2="effect1_dropShadow" result="shape"/>
</filter>
<filter id="filter1_d" x="798.219" y="1078.99" width="70.3146" height="33.186" filterUnits="userSpaceOnUse" color-interpolation-filters="sRGB">
<feFlood flood-opacity="0" result="BackgroundImageFix"/>
<feColorMatrix in="SourceAlpha" type="matrix" values="0 0 0 0 0 0 0 0 0 0 0 0 0 0 0 0 0 0 127 0"/>
<feOffset dy="2"/>
<feGaussianBlur stdDeviation="2"/>
<feColorMatrix type="matrix" values="0 0 0 0 0.87451 0 0 0 0 0.901961 0 0 0 0 0.878431 0 0 0 0.5 0"/>
<feBlend mode="normal" in2="BackgroundImageFix" result="effect1_dropShadow"/>
<feBlend mode="normal" in="SourceGraphic" in2="effect1_dropShadow" result="shape"/>
</filter>
<filter id="filter2_d" x="798.219" y="1077.99" width="70.3146" height="33.186" filterUnits="userSpaceOnUse" color-interpolation-filters="sRGB">
<feFlood flood-opacity="0" result="BackgroundImageFix"/>
<feColorMatrix in="SourceAlpha" type="matrix" values="0 0 0 0 0 0 0 0 0 0 0 0 0 0 0 0 0 0 127 0"/>
<feOffset dy="2"/>
<feGaussianBlur stdDeviation="2"/>
<feColorMatrix type="matrix" values="0 0 0 0 0.87451 0 0 0 0 0.901961 0 0 0 0 0.878431 0 0 0 0.5 0"/>
<feBlend mode="normal" in2="BackgroundImageFix" result="effect1_dropShadow"/>
<feBlend mode="normal" in="SourceGraphic" in2="effect1_dropShadow" result="shape"/>
</filter>
<filter id="filter3_d" x="798.219" y="1076.99" width="70.3146" height="33.186" filterUnits="userSpaceOnUse" color-interpolation-filters="sRGB">
<feFlood flood-opacity="0" result="BackgroundImageFix"/>
<feColorMatrix in="SourceAlpha" type="matrix" values="0 0 0 0 0 0 0 0 0 0 0 0 0 0 0 0 0 0 127 0"/>
<feOffset dy="2"/>
<feGaussianBlur stdDeviation="2"/>
<feColorMatrix type="matrix" values="0 0 0 0 0.87451 0 0 0 0 0.901961 0 0 0 0 0.878431 0 0 0 0.5 0"/>
<feBlend mode="normal" in2="BackgroundImageFix" result="effect1_dropShadow"/>
<feBlend mode="normal" in="SourceGraphic" in2="effect1_dropShadow" result="shape"/>
</filter>
<filter id="filter4_d" x="800.219" y="1075.99" width="70.3146" height="33.186" filterUnits="userSpaceOnUse" color-interpolation-filters="sRGB">
<feFlood flood-opacity="0" result="BackgroundImageFix"/>
<feColorMatrix in="SourceAlpha" type="matrix" values="0 0 0 0 0 0 0 0 0 0 0 0 0 0 0 0 0 0 127 0"/>
<feOffset dy="2"/>
<feGaussianBlur stdDeviation="2"/>
<feColorMatrix type="matrix" values="0 0 0 0 0.87451 0 0 0 0 0.901961 0 0 0 0 0.878431 0 0 0 0.5 0"/>
<feBlend mode="normal" in2="BackgroundImageFix" result="effect1_dropShadow"/>
<feBlend mode="normal" in="SourceGraphic" in2="effect1_dropShadow" result="shape"/>
</filter>
<filter id="filter5_d" x="794.219" y="1074.99" width="70.3146" height="33.186" filterUnits="userSpaceOnUse" color-interpolation-filters="sRGB">
<feFlood flood-opacity="0" result="BackgroundImageFix"/>
<feColorMatrix in="SourceAlpha" type="matrix" values="0 0 0 0 0 0 0 0 0 0 0 0 0 0 0 0 0 0 127 0"/>
<feOffset dy="2"/>
<feGaussianBlur stdDeviation="2"/>
<feColorMatrix type="matrix" values="0 0 0 0 0.87451 0 0 0 0 0.901961 0 0 0 0 0.878431 0 0 0 0.5 0"/>
<feBlend mode="normal" in2="BackgroundImageFix" result="effect1_dropShadow"/>
<feBlend mode="normal" in="SourceGraphic" in2="effect1_dropShadow" result="shape"/>
</filter>
<filter id="filter6_d" x="805.219" y="1075.99" width="70.3146" height="33.186" filterUnits="userSpaceOnUse" color-interpolation-filters="sRGB">
<feFlood flood-opacity="0" result="BackgroundImageFix"/>
<feColorMatrix in="SourceAlpha" type="matrix" values="0 0 0 0 0 0 0 0 0 0 0 0 0 0 0 0 0 0 127 0"/>
<feOffset dy="2"/>
<feGaussianBlur stdDeviation="2"/>
<feColorMatrix type="matrix" values="0 0 0 0 0.87451 0 0 0 0 0.901961 0 0 0 0 0.878431 0 0 0 0.5 0"/>
<feBlend mode="normal" in2="BackgroundImageFix" result="effect1_dropShadow"/>
<feBlend mode="normal" in="SourceGraphic" in2="effect1_dropShadow" result="shape"/>
</filter>
<filter id="filter7_d" x="794.219" y="1073.99" width="70.3146" height="33.186" filterUnits="userSpaceOnUse" color-interpolation-filters="sRGB">
<feFlood flood-opacity="0" result="BackgroundImageFix"/>
<feColorMatrix in="SourceAlpha" type="matrix" values="0 0 0 0 0 0 0 0 0 0 0 0 0 0 0 0 0 0 127 0"/>
<feOffset dy="2"/>
<feGaussianBlur stdDeviation="2"/>
<feColorMatrix type="matrix" values="0 0 0 0 0.87451 0 0 0 0 0.901961 0 0 0 0 0.878431 0 0 0 0.5 0"/>
<feBlend mode="normal" in2="BackgroundImageFix" result="effect1_dropShadow"/>
<feBlend mode="normal" in="SourceGraphic" in2="effect1_dropShadow" result="shape"/>
</filter>
<filter id="filter8_d" x="803.219" y="1073.99" width="70.3146" height="33.186" filterUnits="userSpaceOnUse" color-interpolation-filters="sRGB">
<feFlood flood-opacity="0" result="BackgroundImageFix"/>
<feColorMatrix in="SourceAlpha" type="matrix" values="0 0 0 0 0 0 0 0 0 0 0 0 0 0 0 0 0 0 127 0"/>
<feOffset dy="2"/>
<feGaussianBlur stdDeviation="2"/>
<feColorMatrix type="matrix" values="0 0 0 0 0.87451 0 0 0 0 0.901961 0 0 0 0 0.878431 0 0 0 0.5 0"/>
<feBlend mode="normal" in2="BackgroundImageFix" result="effect1_dropShadow"/>
<feBlend mode="normal" in="SourceGraphic" in2="effect1_dropShadow" result="shape"/>
</filter>
<filter id="filter9_d" x="800.219" y="1069.99" width="70.3146" height="33.186" filterUnits="userSpaceOnUse" color-interpolation-filters="sRGB">
<feFlood flood-opacity="0" result="BackgroundImageFix"/>
<feColorMatrix in="SourceAlpha" type="matrix" values="0 0 0 0 0 0 0 0 0 0 0 0 0 0 0 0 0 0 127 0"/>
<feOffset dy="2"/>
<feGaussianBlur stdDeviation="2"/>
<feColorMatrix type="matrix" values="0 0 0 0 0.87451 0 0 0 0 0.901961 0 0 0 0 0.878431 0 0 0 0.5 0"/>
<feBlend mode="normal" in2="BackgroundImageFix" result="effect1_dropShadow"/>
<feBlend mode="normal" in="SourceGraphic" in2="effect1_dropShadow" result="shape"/>
</filter>
<filter id="filter10_d" x="797.219" y="1069.99" width="70.3146" height="33.186" filterUnits="userSpaceOnUse" color-interpolation-filters="sRGB">
<feFlood flood-opacity="0" result="BackgroundImageFix"/>
<feColorMatrix in="SourceAlpha" type="matrix" values="0 0 0 0 0 0 0 0 0 0 0 0 0 0 0 0 0 0 127 0"/>
<feOffset dy="2"/>
<feGaussianBlur stdDeviation="2"/>
<feColorMatrix type="matrix" values="0 0 0 0 0.87451 0 0 0 0 0.901961 0 0 0 0 0.878431 0 0 0 0.5 0"/>
<feBlend mode="normal" in2="BackgroundImageFix" result="effect1_dropShadow"/>
<feBlend mode="normal" in="SourceGraphic" in2="effect1_dropShadow" result="shape"/>
</filter>
<clipPath id="clip0">
<rect width="1920" height="2000" fill="white"/>
</clipPath>
</defs>
</svg>
