<svg xmlns="http://www.w3.org/2000/svg" viewBox="0 0 160.07 135.4"><defs><style>.cls-1{fill:#fff;}</style></defs><title>Ресурс 1</title><g id="Слой_2" data-name="Слой 2"><g id="Var1"><g id="Иконки"><path id="telegram" class="cls-1" d="M149.49,1.1,6,55.42c-7.84,2.27-7.59,10-1.79,11.88L40.18,78.52l13.76,42.17c1.67,4.61,3,6.35,5.89,6.39s4.15-1,7.27-3.81c3.65-3.43,9.2-8.82,18-17.36l37.39,27.63c6.88,3.79,11.84,1.83,13.56-6.39l23.44-116C162,1.12,156.07-1.89,149.49,1.1ZM45.83,75.94l81.72-51.27c4-2.7,5.29.31,3.47,2.39l-67.83,61-3.48,30.45Z"/></g></g></g></svg>